<svg width="200" height="152" viewBox="0 0 200 152" fill="none" xmlns="http://www.w3.org/2000/svg">
<rect width="200" height="152" fill="#E5E5E5"/>
<g id="61_Light_employees empty" clip-path="url(#clip0_727_25421)">
<rect width="430" height="932" transform="translate(-115 -282)" fill="white"/>
<g id="Auto Layout Vertical">
<g id="Element=Empty Employees, Dark=False, Component=Talento Elements">
<g id="Frame" clip-path="url(#clip1_727_25421)">
<path id="Vector" d="M199.75 151.5H134.986C134.921 151.5 134.857 151.474 134.811 151.427C134.764 151.381 134.738 151.318 134.738 151.252C134.738 151.186 134.764 151.123 134.811 151.077C134.857 151.03 134.921 151.004 134.986 151.004H199.75C199.816 151.004 199.879 151.03 199.926 151.077C199.972 151.123 199.998 151.186 199.998 151.252C199.998 151.318 199.972 151.381 199.926 151.427C199.879 151.474 199.816 151.5 199.75 151.5Z" fill="#3F3D56"/>
<path id="Vector_2" d="M166.431 148.481L163.389 148.481L161.941 136.77L166.431 136.77L166.431 148.481Z" fill="#A0616A"/>
<path id="Vector_3" d="M161.214 147.613H167.08V151.3H157.52C157.52 150.816 157.615 150.337 157.801 149.889C157.986 149.442 158.258 149.035 158.601 148.693C158.944 148.351 159.352 148.079 159.8 147.894C160.248 147.709 160.728 147.613 161.214 147.613Z" fill="#2F2E41"/>
<path id="Vector_4" d="M177.845 148.481L174.803 148.481L173.355 136.77L177.845 136.77L177.845 148.481Z" fill="#A0616A"/>
<path id="Vector_5" d="M172.628 147.613H178.494V151.3H168.934C168.934 150.816 169.029 150.337 169.215 149.889C169.4 149.442 169.673 149.035 170.016 148.693C170.359 148.351 170.766 148.079 171.214 147.894C171.662 147.709 172.142 147.613 172.628 147.613Z" fill="#2F2E41"/>
<path id="Vector_6" d="M163.168 108.118H4.15285C3.06736 108.117 2.02668 107.686 1.25913 106.92C0.491572 106.154 0.0598206 105.115 0.0585938 104.032V6.16955C0.0594784 5.37584 0.375772 4.6149 0.938082 4.05365C1.50039 3.49241 2.2628 3.1767 3.05804 3.17578H164.211C165.02 3.1767 165.796 3.49786 166.368 4.06881C166.94 4.63976 167.262 5.41386 167.263 6.2213V104.032C167.261 105.115 166.83 106.154 166.062 106.92C165.295 107.686 164.254 108.117 163.168 108.118Z" fill="#F5F5F5"/>
<path id="Vector_7" d="M158.025 102.959H9.82652C7.65409 102.959 5.88672 101.307 5.88672 99.2769V14.057C5.88672 12.5513 7.19638 11.3262 8.8062 11.3262H158.997C160.633 11.3262 161.965 12.5715 161.965 14.102V99.2769C161.965 101.307 160.197 102.959 158.025 102.959Z" fill="#FAFAFA"/>
<path id="Vector_8" d="M114.836 68.0504V85.8417C114.836 86.8926 115.254 87.9005 115.999 88.6436C116.743 89.3867 117.753 89.8042 118.806 89.8042H144.996C146.049 89.8042 147.059 89.3867 147.804 88.6436C148.548 87.9005 148.967 86.8926 148.967 85.8417V68.0504C148.967 66.9995 148.548 65.9916 147.804 65.2485C147.059 64.5054 146.049 64.0879 144.996 64.0879H118.806C117.753 64.0879 116.743 64.5054 115.999 65.2485C115.254 65.9916 114.836 66.9995 114.836 68.0504Z" fill="#6C60FF"/>
<path id="Vector_9" d="M140.243 90.2992H123.559C123.948 89.5485 124.451 88.8619 125.05 88.2635C125.809 87.5037 126.712 86.9013 127.705 86.4907C128.699 86.0802 129.764 85.8696 130.839 85.8711H132.963C134.467 85.8704 135.942 86.2833 137.226 87.0645C138.511 87.8456 139.554 88.9648 140.243 90.2992Z" fill="white"/>
<path id="Vector_10" d="M66.2031 68.0504V85.8417C66.2031 86.8926 66.6214 87.9005 67.366 88.6436C68.1105 89.3867 69.1204 89.8042 70.1733 89.8042H96.3636C97.4166 89.8042 98.4264 89.3867 99.1709 88.6436C99.9155 87.9005 100.334 86.8926 100.334 85.8417V68.0504C100.334 66.9995 99.9155 65.9916 99.1709 65.2485C98.4264 64.5054 97.4166 64.0879 96.3636 64.0879H70.1733C69.1204 64.0879 68.1105 64.5054 67.366 65.2485C66.6214 65.9916 66.2031 66.9995 66.2031 68.0504Z" fill="#E0E0E0"/>
<path id="Vector_11" d="M91.6104 90.2992H74.9258C75.3156 89.5485 75.8185 88.8619 76.417 88.2635C77.1765 87.5037 78.0789 86.9013 79.0724 86.4907C80.0658 86.0802 81.1308 85.8696 82.2061 85.8711H84.3301C85.8341 85.8704 87.3092 86.2833 88.5935 87.0645C89.8778 87.8456 90.9216 88.9648 91.6104 90.2992Z" fill="white"/>
<path id="Vector_12" d="M17.5664 68.0504V85.8417C17.5664 86.8926 17.9847 87.9005 18.7293 88.6436C19.4738 89.3867 20.4836 89.8042 21.5366 89.8042H47.7269C48.7798 89.8042 49.7897 89.3867 50.5342 88.6436C51.2788 87.9005 51.6971 86.8926 51.6971 85.8417V68.0504C51.6971 66.9995 51.2788 65.9916 50.5342 65.2485C49.7897 64.5054 48.7798 64.0879 47.7269 64.0879H21.5366C20.4836 64.0879 19.4738 64.5054 18.7293 65.2485C17.9847 65.9916 17.5664 66.9995 17.5664 68.0504Z" fill="#E0E0E0"/>
<path id="Vector_13" d="M42.9737 90.2992H26.2891C26.6789 89.5485 27.1818 88.8619 27.7803 88.2635C28.5398 87.5037 29.4422 86.9013 30.4356 86.4907C31.4291 86.0802 32.4941 85.8696 33.5694 85.8711H35.6934C37.1974 85.8704 38.6725 86.2833 39.9568 87.0645C41.2411 87.8456 42.2849 88.9648 42.9737 90.2992Z" fill="white"/>
<path id="Vector_14" d="M177.472 113.6C177.144 113.39 176.867 113.11 176.659 112.781C176.451 112.452 176.318 112.081 176.269 111.696C176.22 111.31 176.257 110.918 176.376 110.548C176.496 110.177 176.695 109.838 176.96 109.553L174.957 81.1816L180.727 81.7401L180.885 109.524C181.336 110 181.595 110.625 181.615 111.279C181.635 111.934 181.413 112.573 180.993 113.075C180.572 113.578 179.981 113.909 179.332 114.005C178.683 114.102 178.021 113.958 177.472 113.6Z" fill="#A0616A"/>
<path id="Vector_15" d="M166.284 142.581L162.935 142.422C162.65 142.408 162.381 142.286 162.183 142.081C161.985 141.875 161.874 141.602 161.872 141.316C160.989 127.715 159.766 113.131 161.638 107.497C161.637 107.337 161.671 107.178 161.737 107.032C161.803 106.885 161.9 106.755 162.021 106.649C162.142 106.544 162.285 106.466 162.439 106.42C162.594 106.375 162.756 106.364 162.915 106.387L176.313 108.328C176.578 108.365 176.82 108.496 176.996 108.697C177.172 108.898 177.269 109.155 177.269 109.422C178.98 116.093 179.057 128.19 178.992 140.759C178.993 140.906 178.965 141.052 178.91 141.188C178.854 141.325 178.772 141.448 178.668 141.553C178.565 141.657 178.441 141.74 178.305 141.797C178.169 141.853 178.023 141.882 177.876 141.882H174.265C173.999 141.883 173.741 141.789 173.539 141.616C173.336 141.443 173.203 141.204 173.162 140.941L170.935 126.808C170.902 126.601 170.796 126.413 170.635 126.278C170.475 126.144 170.271 126.072 170.061 126.076C169.851 126.08 169.65 126.159 169.494 126.299C169.339 126.44 169.239 126.632 169.214 126.839L167.446 141.6C167.413 141.871 167.282 142.12 167.078 142.301C166.874 142.481 166.61 142.582 166.337 142.583C166.32 142.583 166.302 142.582 166.284 142.581Z" fill="#2F2E41"/>
<path id="Vector_16" d="M168.645 109.423C165.692 107.786 163.385 107.356 162.273 107.245C162.125 107.231 161.981 107.187 161.851 107.115C161.721 107.044 161.607 106.947 161.515 106.831C161.421 106.713 161.353 106.578 161.313 106.433C161.273 106.288 161.263 106.137 161.284 105.988L164.494 82.2007C164.679 80.8091 165.218 79.4878 166.059 78.3626C166.9 77.2374 168.015 76.3457 169.299 75.7723C170.542 75.2021 171.91 74.9588 173.274 75.0655C174.637 75.1722 175.951 75.6253 177.089 76.3818C177.199 76.4548 177.307 76.5294 177.413 76.6055C178.724 77.5643 179.722 78.8891 180.28 80.4128C180.838 81.9366 180.931 83.591 180.549 85.1678C178.58 93.2055 177.904 106.383 177.788 108.943C177.779 109.161 177.706 109.371 177.577 109.548C177.448 109.724 177.27 109.859 177.064 109.934C175.853 110.374 174.575 110.601 173.286 110.606C171.663 110.616 170.065 110.208 168.645 109.423Z" fill="#3F3D56"/>
<path id="Vector_17" d="M176.264 90.7148C176.129 90.6178 176.017 90.4917 175.937 90.346C175.857 90.2002 175.811 90.0384 175.802 89.8726L175.38 82.2259C175.338 81.4683 175.579 80.7221 176.055 80.1311C176.532 79.5402 177.211 79.1463 177.962 79.0255C178.712 78.9047 179.481 79.0655 180.12 79.4769C180.758 79.8882 181.222 80.5211 181.421 81.2534L183.278 88.0899C183.355 88.3752 183.316 88.6793 183.169 88.9356C183.021 89.192 182.778 89.3795 182.493 89.4572L177.21 90.8868C177.049 90.9305 176.881 90.9378 176.717 90.908C176.553 90.8783 176.398 90.8122 176.264 90.7148Z" fill="#3F3D56"/>
<path id="Vector_18" d="M149.241 78.4098C149.272 78.5434 149.292 78.6792 149.301 78.816L159.96 84.9534L162.551 83.4648L165.313 87.0737L159.77 91.0165L147.61 81.4414C147.114 81.6246 146.574 81.6528 146.061 81.5221C145.549 81.3915 145.089 81.1082 144.741 80.7101C144.394 80.3119 144.177 79.8177 144.118 79.2931C144.059 78.7686 144.161 78.2386 144.412 77.7736C144.662 77.3086 145.048 76.9307 145.519 76.6901C145.989 76.4495 146.522 76.3576 147.047 76.4266C147.571 76.4957 148.062 76.7224 148.454 77.0767C148.846 77.431 149.121 77.8959 149.241 78.4098Z" fill="#A0616A"/>
<path id="Vector_19" d="M160.342 84.4311C160.325 84.2659 160.344 84.0989 160.4 83.9423C160.455 83.7857 160.545 83.6435 160.663 83.5263L166.088 78.1104C166.626 77.5739 167.343 77.255 168.102 77.2152C168.862 77.1754 169.609 77.4175 170.2 77.8949C170.79 78.3723 171.183 79.0511 171.302 79.8004C171.422 80.5498 171.258 81.3167 170.845 81.9531L166.981 87.8949C166.82 88.1426 166.566 88.3162 166.277 88.3778C165.987 88.4393 165.685 88.3837 165.437 88.2231L160.845 85.2491C160.705 85.159 160.588 85.0387 160.501 84.8971C160.414 84.7555 160.359 84.5963 160.342 84.4311Z" fill="#3F3D56"/>
<path id="Vector_20" d="M131.9 82.3949C134.915 82.3949 137.359 79.9556 137.359 76.9465C137.359 73.9374 134.915 71.498 131.9 71.498C128.885 71.498 126.441 73.9374 126.441 76.9465C126.441 79.9556 128.885 82.3949 131.9 82.3949Z" fill="white"/>
<path id="Vector_21" d="M83.2676 82.3949C86.2825 82.3949 88.7266 79.9556 88.7266 76.9465C88.7266 73.9374 86.2825 71.498 83.2676 71.498C80.2527 71.498 77.8086 73.9374 77.8086 76.9465C77.8086 79.9556 80.2527 82.3949 83.2676 82.3949Z" fill="white"/>
<path id="Vector_22" d="M34.6309 82.3949C37.6458 82.3949 40.0899 79.9556 40.0899 76.9465C40.0899 73.9374 37.6458 71.498 34.6309 71.498C31.616 71.498 29.1719 73.9374 29.1719 76.9465C29.1719 79.9556 31.616 82.3949 34.6309 82.3949Z" fill="white"/>
<path id="Vector_23" d="M171.329 72.5423C174.695 72.5423 177.423 69.819 177.423 66.4596C177.423 63.1003 174.695 60.377 171.329 60.377C167.963 60.377 165.234 63.1003 165.234 66.4596C165.234 69.819 167.963 72.5423 171.329 72.5423Z" fill="#A0616A"/>
<path id="Vector_24" d="M175.641 71.2724C174.504 72.4812 172.393 71.8323 172.245 70.181C172.233 70.0528 172.234 69.9237 172.247 69.7957C172.324 69.0642 172.747 68.4001 172.646 67.6278C172.623 67.4356 172.551 67.2524 172.437 67.0956C171.531 65.8847 169.404 67.6372 168.549 66.541C168.025 65.8689 168.641 64.8106 168.239 64.0594C167.708 63.0679 166.135 63.557 165.149 63.014C164.051 62.4098 164.117 60.7293 164.839 59.7071C165.72 58.4605 167.265 57.7953 168.791 57.6995C170.316 57.6036 171.831 58.0152 173.255 58.5691C174.873 59.1985 176.478 60.0683 177.474 61.4883C178.685 63.2153 178.801 65.537 178.196 67.5564C177.827 68.7847 176.57 70.2853 175.641 71.2724Z" fill="#2F2E41"/>
<path id="Vector_25" d="M47.7275 24.7129H21.5366C21.0152 24.7128 20.4989 24.8151 20.0171 25.0142C19.5354 25.2133 19.0976 25.5052 18.7289 25.8732C18.3602 26.2412 18.0678 26.678 17.8683 27.1588C17.6689 27.6397 17.5663 28.155 17.5664 28.6754V46.4646C17.5663 46.985 17.6689 47.5003 17.8683 47.9811C18.0678 48.4619 18.3602 48.8988 18.7289 49.2668C19.0976 49.6348 19.5354 49.9266 20.0171 50.1257C20.4989 50.3248 21.0152 50.4272 21.5366 50.4271H47.7275C48.7804 50.4269 49.7902 50.0094 50.5347 49.2663C51.2792 48.5232 51.6975 47.5154 51.6977 46.4646V28.6754C51.6975 27.6245 51.2792 26.6167 50.5347 25.8736C49.7902 25.1305 48.7804 24.713 47.7275 24.7129Z" fill="#6C60FF"/>
<path id="Vector_26" d="M42.9737 50.9222H26.2891C26.6789 50.1715 27.1818 49.485 27.7803 48.8865C28.5398 48.1268 29.4422 47.5243 30.4356 47.1138C31.4291 46.7032 32.4941 46.4926 33.5694 46.4941H35.6934C37.1974 46.4935 38.6725 46.9064 39.9568 47.6875C41.2411 48.4687 42.2849 49.5879 42.9737 50.9222Z" fill="white"/>
<path id="Vector_27" d="M34.6309 43.018C37.6458 43.018 40.0899 40.5786 40.0899 37.5695C40.0899 34.5604 37.6458 32.1211 34.6309 32.1211C31.616 32.1211 29.1719 34.5604 29.1719 37.5695C29.1719 40.5786 31.616 43.018 34.6309 43.018Z" fill="white"/>
<path id="Vector_28" d="M114.836 28.6734V46.4647C114.836 47.5156 115.254 48.5235 115.999 49.2666C116.743 50.0097 117.753 50.4272 118.806 50.4272H144.996C146.049 50.4272 147.059 50.0097 147.804 49.2666C148.548 48.5235 148.967 47.5156 148.967 46.4647V28.6734C148.967 27.6225 148.548 26.6146 147.804 25.8715C147.059 25.1284 146.049 24.7109 144.996 24.7109H118.806C117.753 24.7109 116.743 25.1284 115.999 25.8715C115.254 26.6146 114.836 27.6225 114.836 28.6734Z" fill="#E0E0E0"/>
<path id="Vector_29" d="M140.243 50.9222H123.559C123.948 50.1715 124.451 49.485 125.05 48.8865C125.809 48.1268 126.712 47.5243 127.705 47.1138C128.699 46.7032 129.764 46.4926 130.839 46.4941H132.963C134.467 46.4935 135.942 46.9064 137.226 47.6875C138.511 48.4687 139.554 49.5879 140.243 50.9222Z" fill="white"/>
<path id="Vector_30" d="M66.2031 28.6734V46.4647C66.2031 47.5156 66.6214 48.5235 67.366 49.2666C68.1105 50.0097 69.1204 50.4272 70.1733 50.4272H96.3636C97.4166 50.4272 98.4264 50.0097 99.1709 49.2666C99.9155 48.5235 100.334 47.5156 100.334 46.4647V28.6734C100.334 27.6225 99.9155 26.6146 99.1709 25.8715C98.4264 25.1284 97.4166 24.7109 96.3636 24.7109H70.1733C69.1204 24.7109 68.1105 25.1284 67.366 25.8715C66.6214 26.6146 66.2031 27.6225 66.2031 28.6734Z" fill="#6C60FF"/>
<path id="Vector_31" d="M91.6104 50.9222H74.9258C75.3156 50.1715 75.8185 49.485 76.417 48.8865C77.1765 48.1268 78.0789 47.5243 79.0724 47.1138C80.0658 46.7032 81.1308 46.4926 82.2061 46.4941H84.3301C85.8341 46.4935 87.3092 46.9064 88.5935 47.6875C89.8778 48.4687 90.9216 49.5879 91.6104 50.9222Z" fill="white"/>
<path id="Vector_32" d="M131.9 43.018C134.915 43.018 137.359 40.5786 137.359 37.5695C137.359 34.5604 134.915 32.1211 131.9 32.1211C128.885 32.1211 126.441 34.5604 126.441 37.5695C126.441 40.5786 128.885 43.018 131.9 43.018Z" fill="white"/>
<path id="Vector_33" d="M83.2676 43.018C86.2825 43.018 88.7266 40.5786 88.7266 37.5695C88.7266 34.5604 86.2825 32.1211 83.2676 32.1211C80.2527 32.1211 77.8086 34.5604 77.8086 37.5695C77.8086 40.5786 80.2527 43.018 83.2676 43.018Z" fill="white"/>
<path id="Vector_34" d="M167.204 6.67909H0V4.59867C0.00157409 3.51167 0.435088 2.46969 1.20544 1.70131C1.97579 0.932927 3.02006 0.500898 4.10916 0.5H163.095C164.184 0.500893 165.229 0.932923 165.999 1.70131C166.769 2.46969 167.203 3.51167 167.204 4.59867V6.67909Z" fill="#3F3D56"/>
<path id="Vector_35" d="M15.5355 4.65679C16.1225 4.65679 16.5984 4.18185 16.5984 3.59597C16.5984 3.0101 16.1225 2.53516 15.5355 2.53516C14.9485 2.53516 14.4727 3.0101 14.4727 3.59597C14.4727 4.18185 14.9485 4.65679 15.5355 4.65679Z" fill="white"/>
<path id="Vector_36" d="M11.5004 4.65679C12.0874 4.65679 12.5632 4.18185 12.5632 3.59597C12.5632 3.0101 12.0874 2.53516 11.5004 2.53516C10.9134 2.53516 10.4375 3.0101 10.4375 3.59597C10.4375 4.18185 10.9134 4.65679 11.5004 4.65679Z" fill="white"/>
<path id="Vector_37" d="M7.46912 4.65679C8.05613 4.65679 8.532 4.18185 8.532 3.59597C8.532 3.0101 8.05613 2.53516 7.46912 2.53516C6.88211 2.53516 6.40625 3.0101 6.40625 3.59597C6.40625 4.18185 6.88211 4.65679 7.46912 4.65679Z" fill="white"/>
</g>
</g>
</g>
</g>
<g id="Group">
</g>
<g id="Group_2">
</g>
<defs>
<clipPath id="clip0_727_25421">
<rect width="430" height="932" fill="white" transform="translate(-115 -282)"/>
</clipPath>
<clipPath id="clip1_727_25421">
<rect width="200" height="151" fill="white" transform="translate(0 0.5)"/>
</clipPath>
</defs>
</svg>
